{
  "source": "C:\\Users\\Peter\\Desktop\\stuff\\MIUN\\quantitative_research\\video_compression\\videos\\BVI-HD\\Diver_1920x1080_30fps.mp4",
  "output": "C:\\Users\\Peter\\Desktop\\stuff\\MIUN\\quantitative_research\\video_compression\\compressed_videos\\BVI-HD\\h264\\12\\Diver_1920x1080_30fps_h264.mp4",
  "codec": "h264",
  "ok": "Input #0, mov,mp4,m4a,3gp,3g2,mj2, from 'C:\\Users\\Peter\\Desktop\\stuff\\MIUN\\quantitative_research\\video_compression\\videos\\BVI-HD\\Diver_1920x1080_30fps.mp4':\n  Metadata:\n    major_brand     : isom\n    minor_version   : 512\n    compatible_brands: isomiso2avc1mp41\n    encoder         : Lavf54.28.101\n  Duration: 00:00:05.00, start: 0.000000, bitrate: 196798 kb/s\n  Stream #0:0[0x1](und): Video: h264 (High 4:4:4 Predictive) (avc1 / 0x31637661), yuv420p(progressive), 1920x1080, 196794 kb/s, 30 fps, 30 tbr, 30 tbn (default)\n    Metadata:\n      handler_name    : VideoHandler\n      vendor_id       : [0][0][0][0]\n[out#0/mp4 @ 00000212297b9b80] Codec AVOption b:a (set bitrate (in bits/s)) has not been used for any stream. The most likely reason is either wrong type (e.g. a video option with no video streams) or that it is a private option of some decoder which was not actually used for any stream.\nStream mapping:\n  Stream #0:0 -> #0:0 (h264 (native) -> h264 (libx264))\nPress [q] to stop, [?] for help\n[libx264 @ 00000212297bcb80] using cpu capabilities: MMX2 SSE2Fast SSSE3 SSE4.2 AVX FMA3 BMI2 AVX2\n[libx264 @ 00000212297bcb80] profile High, level 5.0, 4:2:0, 8-bit\n[libx264 @ 00000212297bcb80] 264 - core 165 r3222 b35605a - H.264/MPEG-4 AVC codec - Copyleft 2003-2025 - http://www.videolan.org/x264.html - options: cabac=1 ref=5 deblock=1:0:0 analyse=0x3:0x113 me=hex subme=8 psy=1 psy_rd=1.00:0.00 mixed_ref=1 me_range=16 chroma_me=1 trellis=2 8x8dct=1 cqm=0 deadzone=21,11 fast_pskip=1 chroma_qp_offset=-2 threads=18 lookahead_threads=3 sliced_threads=0 nr=0 decimate=1 interlaced=0 bluray_compat=0 constrained_intra=0 bframes=3 b_pyramid=2 b_adapt=1 b_bias=0 direct=3 weightb=1 open_gop=0 weightp=2 keyint=250 keyint_min=25 scenecut=40 intra_refresh=0 rc_lookahead=50 rc=cbr mbtree=1 bitrate=12000 ratetol=1.0 qcomp=0.60 qpmin=0 qpmax=69 qpstep=4 vbv_maxrate=12000 vbv_bufsize=12000 nal_hrd=none filler=0 ip_ratio=1.40 aq=1:1.00\nOutput #0, mp4, to 'C:\\Users\\Peter\\Desktop\\stuff\\MIUN\\quantitative_research\\video_compression\\compressed_videos\\BVI-HD\\h264\\12\\Diver_1920x1080_30fps_h264.mp4':\n  Metadata:\n    major_brand     : isom\n    minor_version   : 512\n    compatible_brands: isomiso2avc1mp41\n    encoder         : Lavf62.3.100\n  Stream #0:0(und): Video: h264 (avc1 / 0x31637661), yuv420p(tv, progressive), 1920x1080, q=2-31, 12000 kb/s, 30 fps, 15360 tbn (default)\n    Metadata:\n      encoder         : Lavc62.11.100 libx264\n      handler_name    : VideoHandler\n      vendor_id       : [0][0][0][0]\n    Side data:\n      cpb: bitrate max/min/avg: 12000000/0/12000000 buffer size: 12000000 vbv_delay: N/A\nframe=    0 fps=0.0 q=0.0 size=       0KiB time=N/A bitrate=N/A speed=N/A elapsed=0:00:00.52    \nframe=    0 fps=0.0 q=0.0 size=       0KiB time=N/A bitrate=N/A speed=N/A elapsed=0:00:01.07    \nframe=    0 fps=0.0 q=0.0 size=       0KiB time=N/A bitrate=N/A speed=N/A elapsed=0:00:01.59    \nframe=    0 fps=0.0 q=0.0 size=       0KiB time=N/A bitrate=N/A speed=N/A elapsed=0:00:02.18    \nframe=    7 fps=2.6 q=23.0 size=     256KiB time=00:00:00.13 bitrate=15731.6kbits/s speed=0.0487x elapsed=0:00:02.73    \nframe=   16 fps=4.8 q=22.0 size=     512KiB time=00:00:00.40 bitrate=10486.7kbits/s speed=0.121x elapsed=0:00:03.30    \nframe=   25 fps=6.4 q=23.0 size=    1024KiB time=00:00:00.76 bitrate=10942.2kbits/s speed=0.197x elapsed=0:00:03.88    \nframe=   33 fps=7.4 q=23.0 size=    1280KiB time=00:00:00.96 bitrate=10847.7kbits/s speed=0.217x elapsed=0:00:04.44    \nframe=   41 fps=8.1 q=23.0 size=    1792KiB time=00:00:01.30 bitrate=11292.7kbits/s speed=0.257x elapsed=0:00:05.06    \nframe=   47 fps=8.3 q=23.0 size=    2048KiB time=00:00:01.46 bitrate=11439.3kbits/s speed=0.261x elapsed=0:00:05.62    \nframe=   53 fps=8.6 q=24.0 size=    2304KiB time=00:00:01.70 bitrate=11102.8kbits/s speed=0.274x elapsed=0:00:06.19    \nframe=   63 fps=9.4 q=24.0 size=    3072KiB time=00:00:02.00 bitrate=12583.1kbits/s speed=0.298x elapsed=0:00:06.71    \nframe=   73 fps= 10 q=24.0 size=    3584KiB time=00:00:02.36 bitrate=12405.8kbits/s speed=0.326x elapsed=0:00:07.26    \nframe=   81 fps= 10 q=24.0 size=    3840KiB time=00:00:02.63 bitrate=11945.9kbits/s speed=0.337x elapsed=0:00:07.81    \nframe=   90 fps= 11 q=24.0 size=    4352KiB time=00:00:02.90 bitrate=12293.8kbits/s speed=0.346x elapsed=0:00:08.37    \nframe=  101 fps= 11 q=24.0 size=    4864KiB time=00:00:03.30 bitrate=12074.6kbits/s speed=0.369x elapsed=0:00:08.93    \nframe=  109 fps= 11 q=24.0 size=    5120KiB time=00:00:03.46 bitrate=12099.1kbits/s speed=0.366x elapsed=0:00:09.48    \nframe=  116 fps= 12 q=24.0 size=    5632KiB time=00:00:03.76 bitrate=12249.0kbits/s speed=0.375x elapsed=0:00:10.04    \nframe=  129 fps= 12 q=24.0 size=    6144KiB time=00:00:04.10 bitrate=12276.1kbits/s speed=0.388x elapsed=0:00:10.57    \nframe=  134 fps= 12 q=-1.0 size=    6400KiB time=00:00:04.36 bitrate=12006.7kbits/s speed=0.391x elapsed=0:00:11.16    \nframe=  145 fps= 12 q=-1.0 size=    7168KiB time=00:00:04.76 bitrate=12319.0kbits/s speed=0.408x elapsed=0:00:11.69    \n[mp4 @ 00000212297c1580] Starting second pass: moving the moov atom to the beginning of the file\n[out#0/mp4 @ 00000212297b9b80] video:7508KiB audio:0KiB subtitle:0KiB other streams:0KiB global headers:0KiB muxing overhead: 0.035728%\nframe=  150 fps= 13 q=-1.0 Lsize=    7511KiB time=00:00:04.93 bitrate=12472.6kbits/s speed=0.414x elapsed=0:00:11.92    \n[libx264 @ 00000212297bcb80] frame I:1     Avg QP:15.08  size:122110\n[libx264 @ 00000212297bcb80] frame P:38    Avg QP:18.26  size: 68348\n[libx264 @ 00000212297bcb80] frame B:111   Avg QP:18.76  size: 44762\n[libx264 @ 00000212297bcb80] consecutive B-frames:  1.3%  0.0%  0.0% 98.7%\n[libx264 @ 00000212297bcb80] mb I  I16..4: 27.2% 62.8%  9.9%\n[libx264 @ 00000212297bcb80] mb P  I16..4:  1.1%  7.9%  0.5%  P16..4: 62.9% 19.4%  7.6%  0.0%  0.0%    skip: 0.5%\n[libx264 @ 00000212297bcb80] mb B  I16..4:  0.1%  0.9%  0.1%  B16..8: 60.0% 11.1%  1.6%  direct:16.3%  skip: 9.8%  L0:48.8% L1:46.3% BI: 4.9%\n[libx264 @ 00000212297bcb80] 8x8 transform intra:79.0% inter:68.0%\n[libx264 @ 00000212297bcb80] direct mvs  spatial:91.0% temporal:9.0%\n[libx264 @ 00000212297bcb80] coded y,uvDC,uvAC intra: 83.7% 90.9% 56.6% inter: 43.4% 71.3% 15.0%\n[libx264 @ 00000212297bcb80] i16 v,h,dc,p:  4% 13% 18% 64%\n[libx264 @ 00000212297bcb80] i8 v,h,dc,ddl,ddr,vr,hd,vl,hu:  8%  8%  5% 10% 16% 11% 17% 10% 16%\n[libx264 @ 00000212297bcb80] i4 v,h,dc,ddl,ddr,vr,hd,vl,hu:  7%  8%  7% 10% 17% 13% 16%  9% 14%\n[libx264 @ 00000212297bcb80] i8c dc,h,v,p: 49% 26% 13% 13%\n[libx264 @ 00000212297bcb80] Weighted P-Frames: Y:7.9% UV:0.0%\n[libx264 @ 00000212297bcb80] ref P L0: 48.5%  5.6% 24.6% 11.9%  9.0%  0.4%\n[libx264 @ 00000212297bcb80] ref B L0: 70.8% 20.1%  7.1%  1.9%\n[libx264 @ 00000212297bcb80] ref B L1: 91.9%  8.1%\n[libx264 @ 00000212297bcb80] kb/s:12300.69\n",
  "seconds": 12.314687490463257,
  "probe_out": {}
}